<?xml version="1.0" standalone="no"?><!DOCTYPE svg PUBLIC "-//W3C//DTD SVG 1.1//EN" "http://www.w3.org/Graphics/SVG/1.1/DTD/svg11.dtd"><svg t="1695624444101" class="icon" viewBox="0 0 1068 1024" version="1.1" xmlns="http://www.w3.org/2000/svg" p-id="17627" xmlns:xlink="http://www.w3.org/1999/xlink" width="208.59375" height="200"><path d="M486.778435 124.928L131.361391 315.547826a66.782609 66.782609 0 0 0 0 117.715478l355.461566 190.508522a66.782609 66.782609 0 0 0 63.065043 0.022261l342.149565-183.05113a22.26087 22.26087 0 0 1 32.768 19.634086v224.100174a45.145043 45.145043 0 0 0 90.290087 0V414.386087a66.782609 66.782609 0 0 0-35.216695-58.835478L549.910261 124.928a66.782609 66.782609 0 0 0-63.131826 0z" fill="#C7DFFF" p-id="17628"></path><path d="M202.150957 649.594435v48.795826a66.782609 66.782609 0 0 0 35.35026 58.924522l249.410783 133.030956a66.782609 66.782609 0 0 0 62.864696 0l249.410782-133.030956a66.782609 66.782609 0 0 0 35.350261-58.924522v-48.684522a53.248 53.248 0 0 0-78.313739-46.970435l-206.425043 110.102261a66.782609 66.782609 0 0 1-62.886957 0l-206.380522-110.235826a53.270261 53.270261 0 0 0-78.358261 46.992696z" fill="#0058DC" p-id="17629"></path></svg>